<svg width="549" height="152" viewBox="0 0 549 152" fill="none" xmlns="http://www.w3.org/2000/svg">
<rect x="388" y="2" width="161" height="150" rx="30" fill="#BFCED3"/>
<rect x="197" y="1" width="157.498" height="149.596" rx="30" fill="#BFCED3"/>
<rect width="157.498" height="149.596" rx="30" fill="#BFCED3"/>
<path fill-rule="evenodd" clip-rule="evenodd" d="M292.047 119.167V84.6369H303.422L305.124 71.1816H292.043V62.5904C292.043 58.6938 293.106 56.0367 298.592 56.0367H305.583V43.9992C302.197 43.632 298.794 43.4534 295.389 43.4642C285.309 43.4642 278.41 49.737 278.41 61.2529V71.1816H267V84.6369H278.406V119.167H236.83C234.161 119.167 232 116.964 232 114.245V34.922C232 32.2024 234.161 30 236.83 30H314.67C317.339 30 319.5 32.2024 319.5 34.922V114.245C319.5 116.964 317.339 119.167 314.67 119.167H292.047Z" fill="black"/>
<path fill-rule="evenodd" clip-rule="evenodd" d="M77.8374 34C88.8362 34 98.0729 37.9858 105.246 44.5154L105.822 45.0499L94.0155 56.761C90.9925 53.8803 85.6937 50.4326 77.8391 50.4326C66.7743 50.4326 57.3824 57.848 53.9902 68.0953C53.1519 70.7405 52.6418 73.5722 52.6418 76.5018C52.6418 79.4278 53.1537 82.2632 54.0365 84.9065C57.3842 95.1538 66.7743 102.567 77.8374 102.567C83.8067 102.567 88.4099 100.962 91.8931 98.6251L92.3408 98.3171L92.8883 97.9149C97.9053 94.0957 100.279 88.7039 100.843 84.9264L100.896 84.5279H77.8356V68.7566H117.117C117.722 71.4017 118 73.9509 118 77.4439C118 90.3834 113.445 101.292 105.542 108.706C98.6151 115.223 89.1323 119 77.8356 119C61.7288 119 47.7836 109.756 40.7887 96.2263L40.4605 95.5777L40.0646 94.7497C37.3915 89.0489 36.003 82.8145 36 76.5C36 69.9777 37.475 63.7996 40.0664 58.2503L40.4623 57.4223L40.7905 56.7755C47.7854 43.2399 61.7288 34 77.8374 34Z" fill="black"/>
<path d="M509.333 30C512.428 30 515.395 31.1238 517.583 33.1242C519.771 35.1246 521 37.8377 521 40.6667V115.333C521 118.162 519.771 120.875 517.583 122.876C515.395 124.876 512.428 126 509.333 126H427.667C424.572 126 421.605 124.876 419.417 122.876C417.229 120.875 416 118.162 416 115.333V40.6667C416 37.8377 417.229 35.1246 419.417 33.1242C421.605 31.1238 424.572 30 427.667 30H509.333ZM506.417 112.667V84.4C506.417 79.7888 504.413 75.3664 500.847 72.1058C497.28 68.8451 492.444 67.0133 487.4 67.0133C482.442 67.0133 476.667 69.7867 473.867 73.9467V68.0267H457.592V112.667H473.867V86.3733C473.867 82.2667 477.483 78.9067 481.975 78.9067C484.141 78.9067 486.218 79.6933 487.75 81.0936C489.281 82.4939 490.142 84.3931 490.142 86.3733V112.667H506.417ZM438.633 59.6533C441.232 59.6533 443.725 58.7093 445.563 57.029C447.401 55.3487 448.433 53.0697 448.433 50.6933C448.433 45.7333 444.058 41.68 438.633 41.68C436.019 41.68 433.511 42.6296 431.662 44.3199C429.814 46.0103 428.775 48.3029 428.775 50.6933C428.775 55.6533 433.208 59.6533 438.633 59.6533ZM446.742 112.667V68.0267H430.583V112.667H446.742Z" fill="black"/>
</svg>
