<svg width="160" height="160" viewBox="0 0 160 160" fill="none" xmlns="http://www.w3.org/2000/svg">
<path fill-rule="evenodd" clip-rule="evenodd" d="M100.714 110.456C88.3325 120.35 72.6328 125.127 56.8394 123.806C41.046 122.485 26.3578 115.167 15.7916 103.353C5.22539 91.5405 -0.416743 76.1297 0.0240071 60.2864C0.464757 44.443 6.95493 29.3699 18.1615 18.1626C29.3682 6.95533 44.4405 0.464784 60.2829 0.0240085C76.1253 -0.416767 91.5352 5.22569 103.348 15.7925C115.16 26.3593 122.478 41.0483 123.799 56.8427C125.12 72.637 120.343 88.3376 110.45 100.72L157.807 148.071C158.484 148.701 159.027 149.462 159.404 150.307C159.78 151.152 159.983 152.064 159.999 152.989C160.015 153.914 159.845 154.833 159.499 155.691C159.152 156.549 158.636 157.328 157.982 157.982C157.328 158.636 156.549 159.152 155.691 159.499C154.833 159.845 153.915 160.015 152.99 159.999C152.065 159.983 151.153 159.78 150.308 159.404C149.463 159.027 148.702 158.484 148.071 157.807L100.714 110.456ZM27.9237 96.1088C21.1823 89.3663 16.5909 80.7767 14.7297 71.4254C12.8684 62.0741 13.8209 52.3809 17.4668 43.5708C21.1126 34.7607 27.2882 27.2292 35.2129 21.9281C43.1377 16.627 52.456 13.7942 61.9902 13.7878C71.5244 13.7814 80.8465 16.6016 88.7785 21.8921C96.7104 27.1825 102.896 34.7057 106.554 43.5109C110.211 52.316 111.177 62.008 109.328 71.3617C107.48 80.7155 102.9 89.3113 96.1675 96.0628L96.1216 96.1088L96.0757 96.1455C87.0294 105.171 74.7706 110.237 61.9921 110.23C49.2135 110.223 36.9602 105.144 27.9237 96.1088Z" fill="#699BF7"/>
</svg>
