<svg width="169" height="160" viewBox="0 0 169 160" fill="none" xmlns="http://www.w3.org/2000/svg">
<path d="M92.95 72H126.75V88H92.95V120H76.05V88H42.25V72H76.05V40H92.95V72ZM84.5 160C62.0892 160 40.5963 151.571 24.7495 136.569C8.90265 121.566 0 101.217 0 80C0 58.7827 8.90265 38.4344 24.7495 23.4315C40.5963 8.42855 62.0892 0 84.5 0C106.911 0 128.404 8.42855 144.251 23.4315C160.097 38.4344 169 58.7827 169 80C169 101.217 160.097 121.566 144.251 136.569C128.404 151.571 106.911 160 84.5 160ZM84.5 144C102.429 144 119.623 137.257 132.3 125.255C144.978 113.253 152.1 96.9739 152.1 80C152.1 63.0261 144.978 46.7475 132.3 34.7452C119.623 22.7428 102.429 16 84.5 16C66.5714 16 49.377 22.7428 36.6996 34.7452C24.0221 46.7475 16.9 63.0261 16.9 80C16.9 96.9739 24.0221 113.253 36.6996 125.255C49.377 137.257 66.5714 144 84.5 144Z" fill="#699BF7"/>
</svg>
